<svg xmlns="http://www.w3.org/2000/svg" xml:space="preserve" fill-rule="evenodd" stroke-linejoin="round" stroke-miterlimit="2" clip-rule="evenodd" viewBox="0 0 63 76">
  <path fill="#fff" fill-rule="nonzero" d="M44.65 57.676h13.475V40.484c0-1.158.958-2.092 2.141-2.092 1.184 0 2.142.934 2.142 2.092v32.742c0 1.158-.958 2.091-2.142 2.091-1.183 0-2.141-.933-2.141-2.091V61.859H46.79v11.367c0 1.158-.958 2.091-2.141 2.091-1.184 0-2.142-.933-2.142-2.091V59.767c0-1.158.958-2.091 2.142-2.091M2.4 38.387c1.183 0 2.141.934 2.141 2.092v17.192h13.475c1.184 0 2.142.941 2.142 2.1v13.45c0 1.158-.958 2.1-2.142 2.1-1.183 0-2.141-.942-2.141-2.1V61.862H4.54v11.359c0 1.158-.958 2.1-2.141 2.1-1.184 0-2.142-.942-2.142-2.1V40.479c0-1.158.958-2.092 2.142-2.092"/>
  <path fill="#fff" fill-rule="nonzero" d="M26.125 70.684H29.8V52.592H17.783c-1.625 0-2.933-1.283-2.933-2.866 0-1.584 1.308-2.867 2.933-2.867H29.8V30.317H5.625a.459.459 0 0 1-.459-.466C5.683 16.742 16.216 6.192 29.025 5c-.142-.4-.2-.834-.159-1.284.142-1.591 1.509-2.858 3.142-2.9 1.842-.05 3.35 1.392 3.35 3.175 0 .409-.083.8-.233 1.159C47.39 6.909 57.166 17.242 57.65 29.85c.008.25-.2.466-.459.466H33.166V46.86h5.975v-4.767a1.46 1.46 0 0 1-.191-.2l-3.425-4.041c-.217-.25-.034-.634.308-.634l9.633-.025c.342 0 .525.392.292.642l-3.733 4.117a2.646 2.646 0 0 1-.284.25v4.658h3.334c1.616 0 2.933 1.283 2.933 2.867 0 1.583-1.317 2.866-2.933 2.866H33.166v18.092h3.525c1.35 0 2.45 1.067 2.45 2.392s-1.1 2.391-2.45 2.391H26.125c-1.35 0-2.45-1.066-2.45-2.391s1.1-2.392 2.45-2.392"/>
<script xmlns=""/></svg>