<svg xmlns="http://www.w3.org/2000/svg" xml:space="preserve" fill-rule="evenodd" stroke-linejoin="round" stroke-miterlimit="2" clip-rule="evenodd" viewBox="0 0 78 66">
  <path fill="#fff" fill-rule="nonzero" d="M76.05 36.88H1.925c-2.442 0-2.442 4.625 0 4.625H76.05c2.475 0 2.475-4.625 0-4.625M57.716.97c-3.775 0-6.833 3.075-6.833 6.842 0 3.792 3.058 6.867 6.833 6.867 3.75 0 6.809-3.075 6.809-6.867 0-3.767-3.059-6.842-6.809-6.842M72.533 32.18c-.717-5.134-.5-8.284-5.05-12.209-2.792-2.383-3.483-3.266-7-3.266h-5.558c-3.509 0-4.2.883-6.967 3.266-4.583 3.925-4.342 7.075-5.058 12.209-.45 3.258-.45 3.066 2.608 3.066h24.425c3.058 0 3.058.192 2.6-3.066m-6.5-1.242a.498.498 0 0 1-.492.492H49.875a.477.477 0 0 1-.467-.492v-6.45c0-1.2.967-2.192 2.167-2.192H63.85c1.2 0 2.183.992 2.183 2.192v6.45Zm-1 12.75h-5.375a.625.625 0 0 0-.608.617v18.141c0 3.55 6.6 3.55 6.6 0V44.305a.61.61 0 0 0-.617-.617m-9.258 0h-5.317a.605.605 0 0 0-.592.617v18.141c0 3.525 6.492 3.525 6.492 0V44.305c0-.342-.267-.617-.583-.617M20.44.971c-3.775 0-6.808 3.075-6.808 6.842 0 3.792 3.033 6.867 6.808 6.867 3.75 0 6.817-3.075 6.817-6.867 0-3.767-3.067-6.842-6.817-6.842M35.266 32.18c-.725-5.134-.483-8.284-5.058-12.209-2.792-2.383-3.483-3.266-7-3.266h-5.533c-3.509 0-4.2.883-6.992 3.266-4.575 3.925-4.342 7.075-5.058 12.209-.45 3.258-.45 3.066 2.608 3.066h24.425c3.058 0 3.058.192 2.608-3.066m-6.55-1.342a.477.477 0 0 1-.466.492H12.69a.482.482 0 0 1-.491-.492v-6.4c0-1.2.975-2.183 2.175-2.183h12.191c1.192 0 2.15.983 2.15 2.183v6.4ZM18.5 43.688h-5.4c-.317 0-.584.275-.584.617v18.141c0 3.55 6.575 3.55 6.575 0V44.305a.605.605 0 0 0-.591-.617m9.183 0h-5.3c-.317 0-.583.275-.583.617v18.141c0 3.525 6.491 3.525 6.491 0V44.305a.608.608 0 0 0-.608-.617"/>
<script xmlns=""/></svg>