<svg xmlns="http://www.w3.org/2000/svg" xml:space="preserve" fill-rule="evenodd" stroke-linejoin="round" stroke-miterlimit="2" clip-rule="evenodd" viewBox="0 0 61 50">
  <path fill="#fff" fill-rule="nonzero" d="M58.543.438h-38.8c-.892 0-1.608.717-1.608 1.6V16.53h12.7a2.712 2.712 0 0 1 2.708 2.7v22.55c0 3.275-1.617 6.175-4.083 7.958H50.35a9.791 9.791 0 0 0 9.792-9.792V2.038a1.6 1.6 0 0 0-1.6-1.6M44.085 11.105H34.2a2.326 2.326 0 0 1 0-4.65h9.884a2.326 2.326 0 0 1 0 4.65"/>
  <path fill="#fff" fill-rule="nonzero" d="M31.679 41.782v-22.55a.845.845 0 0 0-.842-.841H1.171a.85.85 0 0 0-.842.841v22.55a7.963 7.963 0 0 0 7.958 7.959h15.434c.683 0 1.35-.1 1.983-.259 3.433-.883 5.975-3.991 5.975-7.7M8.387 30.5v-4.667h-.925a.93.93 0 1 1 0-1.858h3.717a.93.93 0 1 1 0 1.858h-.933V30.5a5.765 5.765 0 0 0 5.758 5.758c.758 0 1.475-.15 2.133-.416 2.117-.85 3.625-2.917 3.625-5.342v-4.667h-.933a.928.928 0 0 1 0-1.858h3.725a.93.93 0 0 1 0 1.858h-.933V30.5c0 3.458-2.317 6.383-5.484 7.308-.675.2-1.391.309-2.133.309-4.2 0-7.617-3.417-7.617-7.617"/>
<script xmlns=""/></svg>