<svg xmlns="http://www.w3.org/2000/svg" xml:space="preserve" fill-rule="evenodd" stroke-linejoin="round" stroke-miterlimit="2" clip-rule="evenodd" viewBox="0 0 80 53">
  <path fill="#fff" fill-rule="nonzero" d="M51.216 48.42h-5.341a7.11 7.11 0 0 1-5.042-2.116L22.516 27.662a6.095 6.095 0 0 0-2.108-1.35V13.571c0-.642-.283-1.25-.783-1.667l-7.85-6.625c-.809-.683-2-.683-2.817 0l-7.85 6.625a2.192 2.192 0 0 0-.783 1.667v37.025c0 1.208.983 2.183 2.175 2.183a2.173 2.173 0 0 0 2.175-2.183v-3.15h11.383v3.15c0 1.208.975 2.183 2.175 2.183a2.173 2.173 0 0 0 2.175-2.183v-18.85l17.325 17.616a11.516 11.516 0 0 0 8.142 3.417h5.341a2.184 2.184 0 0 0 2.175-2.183c0-1.2-.983-2.175-2.175-2.175m-40.85-35.2a3.71 3.71 0 0 1 3.717 3.716 3.704 3.704 0 0 1-3.717 3.717 3.72 3.72 0 0 1-3.716-3.717 3.725 3.725 0 0 1 3.716-3.716m5.692 29.875H4.675v-4.242h11.383v4.242Zm0-8.592H4.675v-4.242h11.383v4.242ZM76.13 12.176c.008-.133.041-.258.041-.4a7.39 7.39 0 0 0-7.391-7.391c-.359 0-.709.058-1.05.108A6.093 6.093 0 0 0 62.138.826c-2.5 0-4.65 1.509-5.592 3.667-.341-.05-.683-.108-1.05-.108a7.39 7.39 0 0 0-7.391 7.391c0 .142.033.267.041.4-1.766 1.592-2.883 3.867-2.883 6.4 0 3.267 1.85 6.117 4.567 7.6.058 3.542 2.933 6.392 6.483 6.392a6.373 6.373 0 0 0 3.608-1.108l-.891 21.316h6.216l-.891-21.316a6.373 6.373 0 0 0 3.608 1.108 6.477 6.477 0 0 0 6.483-6.392c2.717-1.483 4.567-4.333 4.567-7.6 0-2.533-1.117-4.808-2.883-6.4"/>
<script xmlns=""/></svg>