<svg xmlns="http://www.w3.org/2000/svg" xml:space="preserve" fill-rule="evenodd" stroke-linejoin="round" stroke-miterlimit="2" clip-rule="evenodd" viewBox="0 0 72 39">
  <path fill="#fff" fill-rule="nonzero" d="M.54 19.067a2.726 2.726 0 0 0 2.725 2.725v-5.45A2.726 2.726 0 0 0 .54 19.067M8.722 5.45a4.37 4.37 0 0 0-4.366 4.366v18.542a4.366 4.366 0 0 0 4.366 4.367 4.366 4.366 0 0 0 4.367-4.367V9.816A4.37 4.37 0 0 0 8.722 5.45M68.732 16.36v5.459a2.735 2.735 0 0 0 2.725-2.742c0-1.5-1.217-2.716-2.725-2.716M63.276 5.45a4.37 4.37 0 0 0-4.366 4.366v18.542a4.366 4.366 0 0 0 4.366 4.367 4.366 4.366 0 0 0 4.367-4.367V9.816a4.37 4.37 0 0 0-4.367-4.366M18.542-.005a4.37 4.37 0 0 0-4.366 4.366V33.82a4.37 4.37 0 0 0 4.366 4.366 4.37 4.37 0 0 0 4.367-4.366V4.36a4.37 4.37 0 0 0-4.367-4.366M53.457-.005a4.37 4.37 0 0 0-4.366 4.366V33.82a4.37 4.37 0 0 0 4.366 4.366 4.37 4.37 0 0 0 4.367-4.366V4.36a4.37 4.37 0 0 0-4.367-4.366"/>
  <path fill="#fff" d="M24 16.358h24.008v5.458H24z"/>
<script xmlns=""/></svg>