<svg xmlns="http://www.w3.org/2000/svg" xml:space="preserve" fill-rule="evenodd" stroke-linejoin="round" stroke-miterlimit="2" clip-rule="evenodd" viewBox="0 0 70 54">
  <path fill="#fff" fill-rule="nonzero" d="M11.2.878h-.009a2.477 2.477 0 0 0-2.467 2.483v37.2a2.488 2.488 0 0 0 2.484 2.475c5.775.017 15.45 1.217 22.125 8.2V12.311c0-.466-.117-.9-.342-1.258C27.516 2.228 16.991.895 11.2.878M61.791 40.559v-37.2c0-.667-.258-1.292-.733-1.758a2.413 2.413 0 0 0-1.733-.725h-.009C53.533.892 43.008 2.234 37.525 11.05c-.225.366-.342.8-.342 1.258v38.933c6.675-6.983 16.35-8.191 22.125-8.2a2.495 2.495 0 0 0 2.483-2.483"/>
  <path fill="#fff" fill-rule="nonzero" d="M67.441 9.457h-1.8v31.1c0 3.484-2.833 6.325-6.325 6.334-4.9.008-12.975.966-18.691 6.383 9.891-2.425 20.316-.85 26.258.508a2.49 2.49 0 0 0 3.042-2.416V11.94a2.49 2.49 0 0 0-2.484-2.484M4.875 40.559v-31.1h-1.8A2.475 2.475 0 0 0 .6 11.934v39.425c0 .758.333 1.467.925 1.942.6.475 1.366.65 2.108.475C9.575 52.426 20 50.85 29.89 53.267 24.175 47.86 16.1 46.901 11.2 46.892c-3.484-.008-6.325-2.85-6.325-6.333"/>
<script xmlns=""/></svg>